{
  "asset": {
    "version": "2.0",
    "generator": "Roomclip glTF export"
  },
  "scene": 0,
  "scenes": [
    {
      "name": "Roomclip_Sample",
      "nodes": [
        0,
        1,
        2,
        3,
        4
      ]
    }
  ],
  "nodes": [
    {
      "name": "Ground__wall_wall_2",
      "mesh": 0
    },
    {
      "name": "Ground__wall_wall_3",
      "mesh": 1
    },
    {
      "name": "Ground__wall_wall_4",
      "mesh": 2
    },
    {
      "name": "Ground__wall_wall_5",
      "mesh": 3
    },
    {
      "name": "Ground__floor_room_8",
      "mesh": 4
    }
  ],
  "meshes": [
    {
      "name": "Ground__wall_wall_2",
      "primitives": [
        {
          "attributes": {
            "POSITION": 0
          },
          "indices": 1,
          "material": 0,
          "mode": 4
        }
      ]
    },
    {
      "name": "Ground__wall_wall_3",
      "primitives": [
        {
          "attributes": {
            "POSITION": 2
          },
          "indices": 3,
          "material": 0,
          "mode": 4
        }
      ]
    },
    {
      "name": "Ground__wall_wall_4",
      "primitives": [
        {
          "attributes": {
            "POSITION": 4
          },
          "indices": 5,
          "material": 0,
          "mode": 4
        }
      ]
    },
    {
      "name": "Ground__wall_wall_5",
      "primitives": [
        {
          "attributes": {
            "POSITION": 6
          },
          "indices": 7,
          "material": 0,
          "mode": 4
        }
      ]
    },
    {
      "name": "Ground__floor_room_8",
      "primitives": [
        {
          "attributes": {
            "POSITION": 8
          },
          "indices": 9,
          "material": 1,
          "mode": 4
        }
      ]
    }
  ],
  "materials": [
    {
      "name": "wall",
      "pbrMetallicRoughness": {
        "baseColorFactor": [
          0.9529411764705882,
          0.9254901960784314,
          0.8823529411764706,
          1
        ],
        "metallicFactor": 0,
        "roughnessFactor": 0.9
      }
    },
    {
      "name": "oak",
      "pbrMetallicRoughness": {
        "baseColorFactor": [
          0.7254901960784313,
          0.6470588235294118,
          0.5490196078431373,
          1
        ],
        "metallicFactor": 0,
        "roughnessFactor": 0.95
      }
    }
  ],
  "accessors": [
    {
      "bufferView": 0,
      "componentType": 5126,
      "count": 8,
      "type": "VEC3",
      "min": [
        0,
        0,
        -0.06
      ],
      "max": [
        5,
        2.7,
        0.06
      ]
    },
    {
      "bufferView": 1,
      "componentType": 5125,
      "count": 36,
      "type": "SCALAR"
    },
    {
      "bufferView": 2,
      "componentType": 5126,
      "count": 8,
      "type": "VEC3",
      "min": [
        4.94,
        0,
        0
      ],
      "max": [
        5.06,
        2.7,
        4
      ]
    },
    {
      "bufferView": 3,
      "componentType": 5125,
      "count": 36,
      "type": "SCALAR"
    },
    {
      "bufferView": 4,
      "componentType": 5126,
      "count": 8,
      "type": "VEC3",
      "min": [
        0,
        0,
        3.94
      ],
      "max": [
        5,
        2.7,
        4.06
      ]
    },
    {
      "bufferView": 5,
      "componentType": 5125,
      "count": 36,
      "type": "SCALAR"
    },
    {
      "bufferView": 6,
      "componentType": 5126,
      "count": 8,
      "type": "VEC3",
      "min": [
        -0.06,
        0,
        0
      ],
      "max": [
        0.06,
        2.7,
        4
      ]
    },
    {
      "bufferView": 7,
      "componentType": 5125,
      "count": 36,
      "type": "SCALAR"
    },
    {
      "bufferView": 8,
      "componentType": 5126,
      "count": 8,
      "type": "VEC3",
      "min": [
        0,
        -0.05,
        0
      ],
      "max": [
        5,
        0,
        4
      ]
    },
    {
      "bufferView": 9,
      "componentType": 5125,
      "count": 36,
      "type": "SCALAR"
    }
  ],
  "bufferViews": [
    {
      "buffer": 0,
      "byteOffset": 0,
      "byteLength": 96,
      "target": 34962
    },
    {
      "buffer": 0,
      "byteOffset": 96,
      "byteLength": 144,
      "target": 34963
    },
    {
      "buffer": 0,
      "byteOffset": 240,
      "byteLength": 96,
      "target": 34962
    },
    {
      "buffer": 0,
      "byteOffset": 336,
      "byteLength": 144,
      "target": 34963
    },
    {
      "buffer": 0,
      "byteOffset": 480,
      "byteLength": 96,
      "target": 34962
    },
    {
      "buffer": 0,
      "byteOffset": 576,
      "byteLength": 144,
      "target": 34963
    },
    {
      "buffer": 0,
      "byteOffset": 720,
      "byteLength": 96,
      "target": 34962
    },
    {
      "buffer": 0,
      "byteOffset": 816,
      "byteLength": 144,
      "target": 34963
    },
    {
      "buffer": 0,
      "byteOffset": 960,
      "byteLength": 96,
      "target": 34962
    },
    {
      "buffer": 0,
      "byteOffset": 1056,
      "byteLength": 144,
      "target": 34963
    }
  ],
  "buffers": [
    {
      "byteLength": 1200,
      "uri": "data:application/octet-stream;base64,"
    }
  ]
}