999
Roomclip 2D plan export — Sample two-room home
0
SECTION
2
HEADER
9
$ACADVER
1
AC1009
9
$INSUNITS
70
6
0
ENDSEC
0
SECTION
2
TABLES
0
TABLE
2
LAYER
70
4
0
LAYER
2
GROUND-FLOOR-OPENINGS
70
0
62
5
6
CONTINUOUS
0
LAYER
2
GROUND-FLOOR-ROOM-LABELS
70
0
62
7
6
CONTINUOUS
0
LAYER
2
GROUND-FLOOR-ROOMS
70
0
62
8
6
CONTINUOUS
0
LAYER
2
GROUND-FLOOR-WALLS
70
0
62
7
6
CONTINUOUS
0
ENDTAB
0
ENDSEC
0
SECTION
2
ENTITIES
0
POLYLINE
8
GROUND-FLOOR-WALLS
66
1
70
1
0
VERTEX
8
GROUND-FLOOR-WALLS
10
-4.06
20
3.06
30
0
0
VERTEX
8
GROUND-FLOOR-WALLS
10
3.94
20
3.06
30
0
0
VERTEX
8
GROUND-FLOOR-WALLS
10
4.06
20
2.94
30
0
0
VERTEX
8
GROUND-FLOOR-WALLS
10
-3.94
20
2.94
30
0
0
SEQEND
0
POLYLINE
8
GROUND-FLOOR-WALLS
66
1
70
1
0
VERTEX
8
GROUND-FLOOR-WALLS
10
4.06
20
2.94
30
0
0
VERTEX
8
GROUND-FLOOR-WALLS
10
4.06
20
-2.94
30
0
0
VERTEX
8
GROUND-FLOOR-WALLS
10
3.94
20
-3.06
30
0
0
VERTEX
8
GROUND-FLOOR-WALLS
10
3.94
20
3.06
30
0
0
SEQEND
0
POLYLINE
8
GROUND-FLOOR-WALLS
66
1
70
1
0
VERTEX
8
GROUND-FLOOR-WALLS
10
3.94
20
-3.06
30
0
0
VERTEX
8
GROUND-FLOOR-WALLS
10
-3.94
20
-3.06
30
0
0
VERTEX
8
GROUND-FLOOR-WALLS
10
-4.06
20
-2.94
30
0
0
VERTEX
8
GROUND-FLOOR-WALLS
10
4.06
20
-2.94
30
0
0
SEQEND
0
POLYLINE
8
GROUND-FLOOR-WALLS
66
1
70
1
0
VERTEX
8
GROUND-FLOOR-WALLS
10
-4.06
20
-2.94
30
0
0
VERTEX
8
GROUND-FLOOR-WALLS
10
-4.06
20
3.06
30
0
0
VERTEX
8
GROUND-FLOOR-WALLS
10
-3.94
20
2.94
30
0
0
VERTEX
8
GROUND-FLOOR-WALLS
10
-3.94
20
-3.06
30
0
0
SEQEND
0
POLYLINE
8
GROUND-FLOOR-WALLS
66
1
70
1
0
VERTEX
8
GROUND-FLOOR-WALLS
10
0.06
20
3
30
0
0
VERTEX
8
GROUND-FLOOR-WALLS
10
0.06
20
-3
30
0
0
VERTEX
8
GROUND-FLOOR-WALLS
10
-0.06
20
-3
30
0
0
VERTEX
8
GROUND-FLOOR-WALLS
10
-0.06
20
3
30
0
0
SEQEND
0
POLYLINE
8
GROUND-FLOOR-OPENINGS
66
1
70
1
0
VERTEX
8
GROUND-FLOOR-OPENINGS
10
-1
20
3.06
30
0
0
VERTEX
8
GROUND-FLOOR-OPENINGS
10
-0.1
20
3.06
30
0
0
VERTEX
8
GROUND-FLOOR-OPENINGS
10
-0.1
20
2.94
30
0
0
VERTEX
8
GROUND-FLOOR-OPENINGS
10
-1
20
2.94
30
0
0
SEQEND
0
POLYLINE
8
GROUND-FLOOR-OPENINGS
66
1
70
1
0
VERTEX
8
GROUND-FLOOR-OPENINGS
10
4.06
20
1
30
0
0
VERTEX
8
GROUND-FLOOR-OPENINGS
10
4.06
20
-0.4
30
0
0
VERTEX
8
GROUND-FLOOR-OPENINGS
10
3.94
20
-0.4
30
0
0
VERTEX
8
GROUND-FLOOR-OPENINGS
10
3.94
20
1
30
0
0
SEQEND
0
POLYLINE
8
GROUND-FLOOR-OPENINGS
66
1
70
1
0
VERTEX
8
GROUND-FLOOR-OPENINGS
10
1
20
-3.06
30
0
0
VERTEX
8
GROUND-FLOOR-OPENINGS
10
-0.4
20
-3.06
30
0
0
VERTEX
8
GROUND-FLOOR-OPENINGS
10
-0.4
20
-2.94
30
0
0
VERTEX
8
GROUND-FLOOR-OPENINGS
10
1
20
-2.94
30
0
0
SEQEND
0
POLYLINE
8
GROUND-FLOOR-OPENINGS
66
1
70
1
0
VERTEX
8
GROUND-FLOOR-OPENINGS
10
0.06
20
-0.5
30
0
0
VERTEX
8
GROUND-FLOOR-OPENINGS
10
0.06
20
-1.4
30
0
0
VERTEX
8
GROUND-FLOOR-OPENINGS
10
-0.06
20
-1.4
30
0
0
VERTEX
8
GROUND-FLOOR-OPENINGS
10
-0.06
20
-0.5
30
0
0
SEQEND
0
POLYLINE
8
GROUND-FLOOR-ROOMS
66
1
70
1
0
VERTEX
8
GROUND-FLOOR-ROOMS
10
-4
20
3
30
0
0
VERTEX
8
GROUND-FLOOR-ROOMS
10
0
20
3
30
0
0
VERTEX
8
GROUND-FLOOR-ROOMS
10
0
20
-3
30
0
0
VERTEX
8
GROUND-FLOOR-ROOMS
10
-4
20
-3
30
0
0
SEQEND
0
TEXT
8
GROUND-FLOOR-ROOM-LABELS
10
-2
20
0
30
0
40
0.25
1
Living 24.0 m2
0
POLYLINE
8
GROUND-FLOOR-ROOMS
66
1
70
1
0
VERTEX
8
GROUND-FLOOR-ROOMS
10
0
20
3
30
0
0
VERTEX
8
GROUND-FLOOR-ROOMS
10
4
20
3
30
0
0
VERTEX
8
GROUND-FLOOR-ROOMS
10
4
20
-3
30
0
0
VERTEX
8
GROUND-FLOOR-ROOMS
10
0
20
-3
30
0
0
SEQEND
0
TEXT
8
GROUND-FLOOR-ROOM-LABELS
10
2
20
0
30
0
40
0.25
1
Bedroom 24.0 m2
0
ENDSEC
0
EOF
